# Blender v2.90.1 OBJ File: ''
# www.blender.org
o Cube_Cube.004
v -3.000000 0.000000 0.500000
v -3.000000 0.250000 0.500000
v -3.000000 0.000000 -0.500000
v -3.000000 0.250000 -0.500000
v 3.000000 0.000000 0.500000
v 3.000000 0.250000 0.500000
v 3.000000 0.000000 -0.500000
v 3.000000 0.250000 -0.500000
vt 0.192346 0.038519
vt 0.038519 0.000062
vt 0.192346 0.000062
vt 0.038519 0.038519
vt 0.000062 0.961481
vt 0.000062 0.038519
vt 0.038519 0.961481
vt 0.192346 0.999938
vt 0.038519 0.999938
vt 0.192346 0.961481
vt 0.230803 0.038519
vt 0.230803 0.961481
vt 0.384630 0.961481
vt 0.384630 0.038519
vn -1.0000 0.0000 0.0000
vn 0.0000 0.0000 -1.0000
vn 1.0000 0.0000 0.0000
vn 0.0000 0.0000 1.0000
vn 0.0000 -1.0000 0.0000
vn 0.0000 1.0000 0.0000
s off
f 2/1/1 3/2/1 1/3/1
f 4/4/2 7/5/2 3/6/2
f 8/7/3 5/8/3 7/9/3
f 6/10/4 1/11/4 5/12/4
f 7/13/5 1/11/5 3/14/5
f 4/4/6 6/10/6 8/7/6
f 2/1/1 4/4/1 3/2/1
f 4/4/2 8/7/2 7/5/2
f 8/7/3 6/10/3 5/8/3
f 6/10/4 2/1/4 1/11/4
f 7/13/5 5/12/5 1/11/5
f 4/4/6 2/1/6 6/10/6
